<svg width="78" height="77" viewBox="0 0 78 77" fill="none" xmlns="http://www.w3.org/2000/svg">
<path d="M77.0098 58.1693C77.0098 79.3419 59.8984 75.8041 38.7903 75.8041C17.6823 75.8041 0.570801 79.3419 0.570801 58.1693C0.570801 36.9968 17.6823 19.833 38.7903 19.833C59.8984 19.833 77.0098 36.9968 77.0098 58.1693Z" fill="#FF504B"/>
<path d="M52.7493 7.11162C53.035 5.44733 54.6158 4.32976 56.2801 4.61547V4.61547C57.9444 4.90118 59.0619 6.48197 58.7762 8.14627L54.6218 32.3463C54.3361 34.0106 52.7553 35.1281 51.091 34.8424V34.8424C49.4267 34.5567 48.3091 32.9759 48.5949 31.3116L52.7493 7.11162Z" fill="#B0B0B0"/>
<path d="M70.698 0.746231C72.3356 0.3341 73.9972 1.32752 74.4093 2.9651V2.9651C74.8214 4.60268 73.828 6.2643 72.1904 6.67643L57.0063 10.4978C55.3687 10.91 53.7071 9.91656 53.2949 8.27898V8.27898C52.8828 6.6414 53.8762 4.97978 55.5138 4.56765L70.698 0.746231Z" fill="#B0B0B0"/>
</svg>
